<svg version="1.2" baseProfile="tiny-ps" xmlns="http://www.w3.org/2000/svg" viewBox="0 0 20 20" width="20" height="20">
	<title>Header</title>
	<style>
		tspan { white-space:pre }
		.shp0 { fill: #ffffff } 
	</style>
	<g id="Header">
		<g id="Search Bar">
			<path id="" class="shp0" d="M19.99 18.98L18.95 20.03L13.18 14.24C12.85 14.54 12.49 14.81 12.09 15.04C11.69 15.27 11.28 15.47 10.85 15.64C10.41 15.81 9.96 15.93 9.48 16.01C9 16.1 8.52 16.14 8.06 16.14C6.93 16.14 5.88 15.92 4.9 15.49C3.93 15.06 3.07 14.48 2.34 13.74C1.61 13.01 1.04 12.16 0.63 11.18C0.21 10.2 0.01 9.16 0.01 8.06C0.01 6.93 0.21 5.88 0.63 4.89C1.04 3.91 1.61 3.06 2.34 2.33C3.07 1.6 3.93 1.02 4.9 0.61C5.88 0.19 6.93 -0.02 8.06 -0.02C9.15 -0.02 10.19 0.19 11.17 0.61C12.15 1.02 13 1.6 13.73 2.33C14.46 3.06 15.04 3.91 15.47 4.89C15.9 5.88 16.11 6.93 16.11 8.06C16.11 8.53 16.07 9 15.99 9.48C15.91 9.96 15.78 10.42 15.62 10.85C15.45 11.29 15.25 11.7 15.02 12.1C14.79 12.5 14.52 12.86 14.23 13.2L19.99 18.98L19.99 18.98ZM0.85 8.06C0.85 9.06 1.03 9.99 1.4 10.85C1.76 11.72 2.28 12.48 2.94 13.15C3.6 13.81 4.37 14.33 5.25 14.72C6.13 15.1 7.07 15.29 8.06 15.29C9.06 15.29 9.98 15.1 10.85 14.72C11.71 14.33 12.47 13.81 13.13 13.15C13.79 12.48 14.32 11.72 14.7 10.85C15.08 9.99 15.27 9.06 15.27 8.06C15.27 7.06 15.08 6.13 14.7 5.24C14.32 4.36 13.79 3.59 13.13 2.93C12.47 2.26 11.71 1.75 10.85 1.38C9.98 1.01 9.06 0.83 8.06 0.83C7.07 0.83 6.13 1.01 5.25 1.38C4.37 1.75 3.6 2.26 2.94 2.93C2.28 3.59 1.76 4.36 1.4 5.24C1.03 6.13 0.85 7.06 0.85 8.06L0.85 8.06Z" />
		</g>
	</g>
</svg>